<svg width="58" height="64" viewBox="0 0 58 64" fill="none" xmlns="http://www.w3.org/2000/svg">
<path d="M16.4151 38.6941C15.6714 39.2649 14.72 39.6108 13.6995 39.6108C13.5092 39.6108 13.3016 39.5935 13.1114 39.5762C13.0076 39.5589 12.8865 39.5416 12.7827 39.5243C12.8173 39.3514 12.8346 39.213 12.8519 39.04C12.8865 38.7806 12.9038 38.4865 12.9038 38.227L12.9211 35.027C12.9211 35.4249 13.1806 35.7881 13.5265 35.8746C13.5957 35.8919 13.6303 35.8919 13.6995 35.8919C13.8897 35.8919 14.1146 35.84 14.2876 35.7189L14.3222 35.8227C14.72 36.8087 15.3427 37.7254 16.1038 38.4519C16.1903 38.5038 16.2941 38.6076 16.4151 38.6941Z" fill="url(#paint0_linear_10763_9429)"/>
<path d="M27.4856 17.7124L27.451 17.9373C27.2781 18.7676 26.9494 19.5805 26.4478 20.2724C25.2543 21.9157 23.317 22.9362 21.224 22.9362H15.5851C15.2218 22.9362 14.8932 22.7632 14.7029 22.4692C14.4954 22.1751 14.4608 21.7946 14.5991 21.4659L15.2391 19.8746C15.4121 19.4595 15.7927 19.2 16.2251 19.2H21.5872C22.037 19.2 22.4694 19.0962 22.85 18.8886C23.0921 18.7676 23.2997 18.6119 23.49 18.4216C23.6456 18.2486 23.7321 17.9546 23.7667 17.6951H27.4856V17.7124Z" fill="url(#paint1_linear_10763_9429)"/>
<path d="M57.946 23.1092V38.1751C57.946 38.573 57.6519 38.9189 57.2368 39.0573L55.6454 39.5416C55.5244 39.5762 55.4033 39.5935 55.2995 39.5935C54.7114 39.5935 54.2271 39.1957 54.2271 38.6595V23.7319C54.2271 23.2822 54.4865 22.8843 54.9016 22.7287L56.4584 22.106C56.5795 22.0541 56.7179 22.0195 56.8562 22.0195C57.4616 22.0195 57.946 22.5038 57.946 23.1092Z" fill="url(#paint2_linear_10763_9429)"/>
<path d="M57.946 1.10703V16.1903C57.946 16.5881 57.6519 16.9341 57.2368 17.0724L55.6454 17.5395C55.5244 17.5741 55.4033 17.5914 55.2995 17.5914C54.7114 17.5914 54.2271 17.1762 54.2271 16.6573V1.72973C54.2271 1.28 54.4865 0.882162 54.9016 0.709189L56.4584 0.0864865C56.5795 0.0345946 56.7179 0 56.8562 0C57.4616 0.0172973 57.946 0.501622 57.946 1.10703Z" fill="url(#paint3_linear_10763_9429)"/>
<path d="M12.9209 1.107V16.294C12.9209 19.7189 10.3436 22.6248 7.05709 22.9189C6.86682 22.9362 6.65925 22.9535 6.46898 22.9535C3.06141 22.9535 0.328441 20.307 0.0343871 16.9686C0.0170898 16.8129 0.0170898 16.7092 0.0170898 16.7092C0.120874 16.8129 2.14466 21.0335 4.60087 21.0335C7.05709 21.0335 8.97709 19.1827 9.16736 16.8129C9.18466 16.7265 9.18466 16.64 9.18466 16.5362V1.72971C9.18466 1.27998 9.44412 0.899435 9.85925 0.726462L11.4333 0.103759C11.5544 0.0518675 11.6928 0.0172729 11.8311 0.0172729C12.4366 0.0172729 12.9209 0.518895 12.9209 1.107Z" fill="url(#paint4_linear_10763_9429)"/>
<path d="M9.16736 16.7957C8.99439 19.1481 7.0052 21.0162 4.60087 21.0162C2.19655 21.0162 0.155468 19.1135 0.0170898 16.6919V10.2573C0.0170898 9.80759 0.276549 9.40975 0.691684 9.23678L2.24844 8.61407C2.36952 8.56218 2.5079 8.52759 2.64628 8.52759C3.25168 8.52759 3.73601 9.01191 3.73601 9.61732V16.3287C3.73601 17.6087 4.58358 18.8368 5.84628 19.1308C7.21277 19.4422 8.63114 18.6292 9.04628 17.2973C9.11547 17.1589 9.13277 16.9687 9.16736 16.7957Z" fill="url(#paint5_linear_10763_9429)"/>
<path d="M12.9209 34.214V38.227C12.9209 41.6519 10.3436 44.5578 7.05709 44.8519C6.86682 44.8692 6.65925 44.8865 6.46898 44.8865C2.97493 44.8865 0.120874 42.1016 0.0170898 38.6248V32.1384C0.0170898 31.6886 0.276549 31.2908 0.691684 31.1178L2.24844 30.4951C2.36952 30.4432 2.5079 30.4086 2.64628 30.4086C3.25168 30.4086 3.73601 30.893 3.73601 31.4984V38.2789C3.73601 39.7319 4.75655 40.96 6.12304 41.1157C6.22682 41.133 6.3479 41.133 6.45168 41.133C7.85277 41.133 8.99439 40.0778 9.15006 38.7113C9.16736 38.6248 9.16736 38.5384 9.16736 38.4346V34.8194C9.16736 34.3697 9.42682 33.9892 9.84196 33.8162L11.416 33.1935C11.5371 33.1416 11.6755 33.107 11.8138 33.107C12.4366 33.1243 12.9209 33.6259 12.9209 34.214Z" fill="url(#paint6_linear_10763_9429)"/>
<path d="M9.16736 38.7286C8.99439 41.0811 7.0052 42.9492 4.60087 42.9492C2.19655 42.9492 0.155468 41.0292 0.0170898 38.6248V32.1384C0.0170898 31.6886 0.276549 31.2908 0.691684 31.1178L2.24844 30.4951C2.36952 30.4432 2.5079 30.4086 2.64628 30.4086C3.25168 30.4086 3.73601 30.893 3.73601 31.4984V38.2789C3.73601 39.7319 4.75655 40.96 6.12304 41.1157C6.22682 41.133 6.3479 41.133 6.45168 41.133C7.78358 41.133 8.8906 40.1643 9.13277 38.9016C9.15006 38.8497 9.16736 38.7978 9.16736 38.7286Z" fill="url(#paint7_linear_10763_9429)"/>
<path d="M30.9103 16.8649C30.1665 17.4011 29.2325 17.7297 28.2638 17.7297H20.8606C20.5319 17.7124 20.2206 17.6605 19.9092 17.5741C19.5979 17.4876 19.3038 17.3838 19.027 17.2281C18.7503 17.0897 18.4908 16.9168 18.2487 16.7265C18.0065 16.5362 17.7816 16.3114 17.5914 16.0865C17.3838 15.8443 17.2108 15.5849 17.0725 15.3254C16.9168 15.0487 16.7957 14.7546 16.7092 14.4605C16.6054 14.1319 16.5535 13.8033 16.5362 13.4573C16.5016 13.0249 16.5189 12.5751 16.6054 12.16C16.6573 11.9524 16.7265 11.7449 16.7957 11.5373C16.8649 11.347 16.9514 11.1395 17.0552 10.9492C17.2627 10.586 17.5222 10.24 17.8162 9.94595C18.1103 9.6519 18.4562 9.37514 18.8195 9.16758C19.1308 8.9946 19.4595 8.85622 19.8054 8.75244C19.8919 8.73514 19.9784 8.70055 20.0649 8.68325C20.1514 8.66595 20.2552 8.63136 20.3243 8.63136C20.4627 8.59677 20.7741 8.57947 20.7741 8.57947C20.1687 8.59677 19.546 8.94271 19.1308 9.37514C18.6811 9.82487 18.4043 10.413 18.3525 11.0357C18.2833 11.7968 18.5427 12.5405 19.0616 13.0941C19.5287 13.5957 20.2033 13.907 20.8779 13.9762C20.9816 13.9935 21.1027 13.9935 21.2065 13.9935H28.2465C28.4195 13.9935 28.5925 13.9589 28.7135 13.8551C28.7135 13.8724 28.7308 13.8897 28.7308 13.907C29.1114 14.893 29.7168 15.8097 30.4952 16.5535C30.6508 16.64 30.7719 16.7611 30.9103 16.8649Z" fill="url(#paint8_linear_10763_9429)"/>
<path d="M14.5991 11.2778C14.5991 12.0735 14.7548 12.8692 15.0316 13.6129C15.5678 14.9794 16.5537 16.1211 17.8164 16.8648C18.197 17.0897 18.6121 17.28 19.0272 17.4183C19.3559 17.5394 19.7018 17.6086 20.0478 17.6605C20.2553 17.6951 20.4629 17.7124 20.6532 17.7297H21.0683H20.8261C18.4045 17.5913 16.4845 15.5848 16.4845 13.1286C16.4845 12.9038 16.5018 12.6789 16.5364 12.454C16.571 12.2292 16.6056 12.0216 16.6748 11.814C16.6748 11.7967 16.6748 11.7794 16.6921 11.7794C16.7267 11.6756 16.7613 11.5719 16.7959 11.4681C16.8478 11.3297 16.8997 11.2086 16.9689 11.0875C17.0207 10.9665 17.0899 10.8454 17.1764 10.7243C17.211 10.6551 17.2629 10.5859 17.3148 10.5167C18.0067 9.53078 19.0791 8.83889 20.3072 8.63132C20.8434 8.52754 21.4316 8.54484 21.9505 8.73511C22.6597 8.99457 23.2478 9.54808 23.5418 10.2573C23.6802 10.5859 23.7494 10.9492 23.7494 11.2951V13.9935H27.5029V11.2951C27.5029 10.0151 27.1051 8.73511 26.3959 7.67997C25.6867 6.64213 24.6834 5.81186 23.5245 5.32754C22.1234 4.73943 20.5321 4.68754 19.0964 5.15457C18.7851 5.25835 18.4737 5.37943 18.1797 5.51781C16.8997 6.15781 15.8445 7.23024 15.2391 8.52754C15.1872 8.63132 15.1353 8.7524 15.0834 8.85619C14.7548 9.61727 14.5991 10.4475 14.5991 11.2778Z" fill="url(#paint9_linear_10763_9429)"/>
<path d="M48.8996 12.5405V13.1113C48.8996 13.44 48.865 13.7686 48.7958 14.0627C48.7612 14.1838 48.7439 14.3221 48.692 14.4432C48.6747 14.5297 48.6402 14.6162 48.6056 14.6854C48.571 14.7546 48.5537 14.8238 48.5191 14.893C48.4845 14.9621 48.4499 15.0313 48.4153 15.1005C48.3807 15.1697 48.3461 15.2389 48.3115 15.3081C48.225 15.4638 48.1385 15.6194 48.0175 15.7578C47.9829 15.8097 47.931 15.8789 47.8964 15.9308C47.8099 16.0346 47.7234 16.1384 47.6369 16.2421C47.2737 16.6227 46.8758 16.9167 46.4261 17.1589C46.305 17.2108 46.2012 17.2627 46.0802 17.3319C45.8553 17.4357 45.6131 17.5048 45.371 17.574C45.2499 17.6086 45.1115 17.6259 44.9731 17.6432C44.8347 17.6605 44.6791 17.6778 44.5407 17.6951H42.5515C41.6693 17.6605 40.8218 17.3492 40.1299 16.8303C40.251 16.7438 40.372 16.64 40.4585 16.5362C41.2369 15.8097 41.8423 14.9103 42.2402 13.9416C42.2402 13.9243 42.2575 13.9243 42.2575 13.907L42.292 13.8032C42.3785 13.8724 42.4823 13.9243 42.6034 13.9416C42.6553 13.9589 42.7245 13.9589 42.7764 13.9589H46.0456C47.2218 13.9589 48.2423 13.2843 48.6747 12.3157C48.7785 12.0908 48.8304 11.8659 48.8823 11.6238V11.5373C48.8823 11.5027 48.8996 11.4681 48.8996 11.4162V12.5405Z" fill="url(#paint10_linear_10763_9429)"/>
<path d="M51.5284 0.0172729C51.39 0.0172729 51.2516 0.0518675 51.1306 0.103759L49.5911 0.709165C49.176 0.882138 48.8992 1.27998 48.8992 1.72971V13.0075C48.8819 13.5438 48.83 14.08 48.657 14.5989C48.5014 15.0659 48.2592 15.4984 47.9652 15.8962C47.5673 16.4324 47.0311 16.8821 46.443 17.1935C46.3219 17.2454 46.2181 17.2973 46.097 17.3665C45.8722 17.4702 45.63 17.5394 45.3879 17.6086C45.2668 17.6432 45.1284 17.6605 44.99 17.6778C44.8516 17.6951 44.696 17.7124 44.5576 17.7297H44.3154H44.9727C45.9068 17.7297 46.8581 17.7297 47.7749 17.5394C48.7781 17.3146 49.6949 16.7957 50.456 16.1211C51.2862 15.3773 51.8916 14.4951 52.2549 13.44C52.4971 12.7481 52.6354 12.0216 52.6354 11.2778V1.1243C52.6354 0.518895 52.1511 0.0172729 51.5284 0.0172729Z" fill="url(#paint11_linear_10763_9429)"/>
<path d="M29.0596 11.2778C29.0596 12.0562 29.1979 12.8519 29.492 13.5957C29.8379 14.4951 30.3742 15.2908 31.0661 15.9481C31.1871 16.0692 31.3255 16.1903 31.4639 16.2941C32.3979 17.0551 33.5569 17.5395 34.8196 17.6778C32.6401 17.3146 30.9623 15.4292 30.9623 13.1287C30.9623 11.4508 31.9136 9.85947 33.3839 9.06379C34.8542 8.26811 36.8088 8.28541 37.812 9.79028C38.0888 10.2054 38.2444 10.7243 38.2617 11.226C38.279 12.2465 37.7082 13.1978 36.8088 13.6822C36.6877 13.7514 36.5666 13.8032 36.4455 13.8378C36.2725 13.8897 36.1342 13.9416 35.9612 13.9589C35.9612 13.9589 36.065 13.9589 36.1861 13.9416C37.2412 13.8032 38.2444 13.2324 38.919 12.4368C39.6109 11.6411 40.0434 10.7589 40.0952 9.58271C40.1298 8.68325 39.8704 7.78379 39.4034 7.02271C38.9709 6.31352 38.3655 5.72541 37.639 5.32757C37.0509 5.01622 36.4109 4.84325 35.7536 4.80865H35.4769C32.8996 4.82595 30.6855 6.34811 29.665 8.56217C29.2498 9.40974 29.0596 10.3438 29.0596 11.2778Z" fill="url(#paint12_linear_10763_9429)"/>
<path d="M30.9448 13.1459C30.9448 15.4292 32.6054 17.3319 34.8021 17.6778C35.0443 17.7124 35.2691 17.7124 35.5113 17.7124C37.0162 17.7124 38.4 17.1935 39.507 16.3286C39.6454 16.2248 39.7837 16.1038 39.9221 15.9827C40.5102 15.4292 41.0119 14.7546 41.3578 13.9935C41.4097 13.8724 41.4616 13.7513 41.5135 13.6303C41.7902 12.9211 41.9632 12.1427 41.9632 11.347V11.2605C41.9632 8.04322 39.5935 5.36214 36.5146 4.89512C36.2724 4.86052 36.0129 4.82593 35.7535 4.82593C35.9264 4.84323 36.0821 4.86052 36.2551 4.87782C36.4281 4.91241 36.5837 4.94701 36.7567 4.9989C38.6767 5.55241 40.0605 7.33404 40.0605 9.42701C40.0605 9.80755 40.0086 10.1881 39.9221 10.5513C39.8875 10.6724 39.8529 10.7935 39.8183 10.9146C39.8183 10.9492 39.801 10.9665 39.7837 10.9838C39.7664 11.0357 39.7491 11.0875 39.7319 11.1221C39.6627 11.3124 39.5762 11.5027 39.4724 11.6757C39.4378 11.7448 39.4032 11.7967 39.3686 11.8486C39.1437 12.1946 38.8843 12.5232 38.5729 12.8C38.4691 12.9038 38.3654 12.9903 38.2616 13.0594C38.1578 13.1459 38.0367 13.2324 37.9156 13.3016C37.8291 13.3535 37.7254 13.4227 37.6216 13.4746C37.4832 13.5611 37.3275 13.6303 37.1719 13.6821C37.0681 13.734 36.947 13.7686 36.8259 13.8032C36.7221 13.8378 36.601 13.8724 36.4973 13.8897C36.4281 13.907 36.3416 13.9243 36.2724 13.9416C36.2032 13.9589 36.1167 13.9589 36.0302 13.9589C35.8573 13.9762 35.7016 13.9762 35.5286 13.9762C35.4421 13.9762 35.3556 13.9762 35.2691 13.9589C35.2173 13.9589 35.1654 13.9416 35.1135 13.9416C34.681 13.8724 34.2832 13.6994 33.9373 13.4573L33.92 13.44C33.8681 13.4054 33.7989 13.3535 33.747 13.3016C33.6432 13.2151 33.5221 13.1113 33.4356 12.9903C33.0551 12.5232 32.8129 11.9178 32.8129 11.2605C32.8129 9.89403 33.8335 8.75241 35.1654 8.56214C35.2 8.56214 35.2346 8.54485 35.2691 8.54485H35.1481C32.7956 8.75241 30.9448 10.7416 30.9448 13.1459Z" fill="url(#paint13_linear_10763_9429)"/>
<path d="M25.6689 38.7114C26.4127 39.2476 27.3468 39.5762 28.3154 39.5762H35.7014C36.03 39.5589 36.3414 39.507 36.6527 39.4206C36.9641 39.3341 37.2581 39.2303 37.5349 39.0746C37.8116 38.9362 38.0711 38.7633 38.3133 38.573C38.5554 38.3827 38.7803 38.1579 38.9706 37.933C39.1781 37.6908 39.3511 37.4314 39.4895 37.1719C39.6452 36.8952 39.7662 36.6011 39.8527 36.307C39.9565 35.9784 40.0084 35.6497 40.0257 35.3038C40.0603 34.8714 40.043 34.4216 39.9565 34.0065C39.9046 33.7989 39.8354 33.5914 39.7662 33.3838C39.6971 33.1935 39.6106 32.986 39.5068 32.7957C39.2992 32.4325 39.0398 32.0865 38.7457 31.7925C38.4516 31.4984 38.1057 31.2216 37.7425 31.0141C37.4311 30.8411 37.1025 30.7027 36.7565 30.5989C36.67 30.5816 36.5835 30.547 36.4971 30.5297C36.4106 30.5125 36.3068 30.4779 36.2376 30.4779C36.0992 30.4433 35.7879 30.426 35.7879 30.426C36.3933 30.4433 37.016 30.7892 37.4311 31.2216C37.8808 31.6714 38.1576 32.2595 38.2095 32.8822C38.2787 33.6433 38.0192 34.387 37.5003 34.9406C37.0333 35.4422 36.3587 35.7535 35.6841 35.8227C35.5803 35.84 35.4592 35.84 35.3554 35.84H28.3154C28.1425 35.84 27.9695 35.8054 27.8484 35.7016C27.8484 35.7189 27.8311 35.7362 27.8311 35.7535C27.4506 36.7395 26.8452 37.6562 26.0668 38.4C25.9284 38.5038 25.79 38.6249 25.6689 38.7114Z" fill="url(#paint14_linear_10763_9429)"/>
<path d="M41.9634 33.1243C41.9634 33.92 41.8077 34.7157 41.5309 35.4595C40.9947 36.826 40.0088 37.9676 38.7461 38.7114C38.3655 38.9362 37.9504 39.1265 37.5352 39.2649C37.2066 39.386 36.8607 39.4551 36.5147 39.507C36.3071 39.5416 36.0996 39.5589 35.9093 39.5762H35.4942H35.7363C38.1579 39.4378 40.0779 37.4314 40.0779 34.9751C40.0779 34.7503 40.0607 34.5254 40.0261 34.3005C39.9915 34.0757 39.9569 33.8681 39.8877 33.6605C39.8877 33.6433 39.8877 33.626 39.8704 33.626C39.8358 33.5222 39.8012 33.4184 39.7666 33.3146C39.7147 33.1762 39.6628 33.0551 39.5936 32.9341C39.5417 32.813 39.4725 32.6919 39.3861 32.5708C39.3515 32.5016 39.2996 32.4324 39.2477 32.3633C38.5558 31.3773 37.4834 30.6854 36.2552 30.4778C35.719 30.3741 35.1309 30.3914 34.612 30.5816C33.9028 30.8411 33.3147 31.3946 33.0207 32.1038C32.8823 32.4324 32.8131 32.7957 32.8131 33.1416V35.8227H29.0596V33.1243C29.0596 31.8443 29.4574 30.5643 30.1666 29.5092C30.8758 28.4714 31.879 27.6411 33.0379 27.1568C34.439 26.5687 36.0304 26.5168 37.4661 26.9838C37.7774 27.0876 38.0888 27.2087 38.3828 27.347C39.6628 27.987 40.7179 29.0595 41.3234 30.3568C41.3752 30.4605 41.4271 30.5816 41.479 30.6854C41.8077 31.4638 41.9634 32.2941 41.9634 33.1243Z" fill="url(#paint15_linear_10763_9429)"/>
<path d="M27.5026 33.1243C27.5026 33.9027 27.3642 34.6984 27.0702 35.4422C26.7242 36.3416 26.188 37.1373 25.4961 37.7946C25.375 37.9157 25.2367 38.0368 25.0983 38.1406C24.1642 38.9016 23.0053 39.386 21.7426 39.5243C23.9221 39.1611 25.5999 37.2757 25.5999 34.9751C25.5999 33.2973 24.6486 31.706 23.1783 30.9103C21.708 30.1146 19.7534 30.1319 18.7502 31.6368C18.4734 32.0519 18.3177 32.5708 18.3005 33.0724C18.2832 34.093 18.854 35.0443 19.7534 35.5287C19.8745 35.5979 19.9956 35.6497 20.1167 35.6843C20.2896 35.7362 20.428 35.7881 20.601 35.8054C20.601 35.8054 20.4972 35.8054 20.3761 35.7881C19.321 35.6497 18.3177 35.0789 17.6432 34.2833C16.9513 33.4876 16.5188 32.6054 16.4669 31.4292C16.4323 30.5297 16.6918 29.6303 17.1588 28.8692C17.5913 28.16 18.1967 27.5719 18.9232 27.1741C19.5113 26.8627 20.1513 26.6897 20.8086 26.6552H21.0853C23.6626 26.6724 25.8767 28.1946 26.8972 30.4087C27.3123 31.2735 27.5026 32.2076 27.5026 33.1243Z" fill="url(#paint16_linear_10763_9429)"/>
<path d="M25.6175 34.9924C25.6175 37.2757 23.957 39.1784 21.7602 39.5243C21.518 39.5589 21.2932 39.5589 21.051 39.5589C19.5461 39.5589 18.1624 39.04 17.0553 38.1751C16.917 38.0713 16.7786 37.9503 16.6402 37.8292C16.0521 37.2757 15.5505 36.6011 15.2045 35.84C15.1526 35.7189 15.1007 35.5978 15.0489 35.4767C14.7721 34.7676 14.5991 33.9892 14.5991 33.1935V33.107C14.5991 29.8897 16.9689 27.2086 20.0478 26.7416C20.2899 26.707 20.5494 26.6724 20.8089 26.6724C20.6359 26.6897 20.4802 26.707 20.3072 26.7243C20.1343 26.7589 19.9786 26.7935 19.8056 26.8454C17.8856 27.3989 16.5018 29.1805 16.5018 31.2735C16.5018 31.654 16.5537 32.0346 16.6402 32.3978C16.6748 32.5189 16.7094 32.64 16.744 32.7611C16.744 32.7957 16.7613 32.813 16.7786 32.8303C16.7959 32.8822 16.8132 32.934 16.8305 32.9686C16.8997 33.1589 16.9861 33.3492 17.0899 33.5222C17.1245 33.5913 17.1591 33.6432 17.1937 33.6951C17.4186 34.0411 17.678 34.3697 17.9894 34.6465C18.0932 34.7503 18.197 34.8367 18.3007 34.9059C18.4045 34.9924 18.5256 35.0789 18.6467 35.1481C18.7332 35.2 18.837 35.2692 18.9407 35.3211C19.0791 35.4076 19.2348 35.4767 19.3905 35.5286C19.4943 35.5805 19.6153 35.6151 19.7364 35.6497C19.8402 35.6843 19.9613 35.7189 20.0651 35.7362C20.1343 35.7535 20.2207 35.7708 20.2899 35.7881C20.3591 35.8054 20.4456 35.8054 20.5321 35.8054C20.7051 35.8227 20.8607 35.8227 21.0337 35.8227C21.1202 35.8227 21.2067 35.8227 21.2932 35.8054C21.3451 35.8054 21.397 35.7881 21.4489 35.7881C21.8813 35.7189 22.2791 35.5459 22.6251 35.3038L22.6424 35.2865C22.6943 35.2519 22.7634 35.2 22.8153 35.1481C22.9191 35.0616 23.0402 34.9578 23.1267 34.8367C23.5072 34.3697 23.7494 33.7643 23.7494 33.107C23.7494 31.7405 22.7289 30.5989 21.397 30.4086C21.3624 30.4086 21.3278 30.3913 21.2932 30.3913H21.4316C23.7667 30.6162 25.6175 32.6054 25.6175 34.9924Z" fill="url(#paint17_linear_10763_9429)"/>
<path d="M43.5892 38.4173V38.6076C43.6065 39.3168 43.5892 39.6973 43.5892 39.6973V40.147C43.5546 41.3232 43.2779 42.3611 42.4822 43.2605C41.773 44.0562 40.8908 44.6443 39.853 44.8C39.7146 44.8173 39.4033 44.8346 39.2476 44.8519H15.6195C15.2562 44.8519 14.9276 44.6789 14.72 44.3849C14.5124 44.0908 14.4779 43.7103 14.6162 43.3643L15.2389 41.8076C15.3946 41.3924 15.7924 41.133 16.2422 41.133H40.6141C41.0638 41.133 41.5481 41.0811 41.9633 40.9081C42.2746 40.7697 42.5514 40.5795 42.7935 40.3373C43.2951 39.8357 43.5892 39.1438 43.5892 38.4173Z" fill="url(#paint18_linear_10763_9429)"/>
<path d="M52.6182 23.1438V35.2692C52.5663 36.2724 52.1685 37.2238 51.5285 37.9849C51.0269 38.573 50.3869 39.0227 49.6604 39.2995C48.9166 39.5762 48.1036 39.6454 47.3253 39.507C47.2907 39.507 47.2561 39.4897 47.2388 39.4897V39.2822C47.2734 38.9881 47.308 38.7459 47.308 38.4519L47.3253 35.0962C47.3253 35.0962 47.3253 35.8746 48.1209 35.8746C48.3631 35.8746 48.588 35.7708 48.7436 35.5805C48.7955 35.5286 48.8301 35.4595 48.8647 35.3903C48.8993 35.3038 48.9166 35.2 48.9166 35.0962V23.7665C48.9166 23.3167 49.2107 22.8843 49.6258 22.7113L51.0961 22.1232C51.2344 22.0713 51.3728 22.0368 51.5112 22.0368C52.1166 22.0195 52.6182 22.5211 52.6182 23.1438Z" fill="url(#paint19_linear_10763_9429)"/>
<path d="M47.3254 27.7622V38.4173C47.3254 40.2854 46.4778 42.1189 45.0594 43.3297C44.281 43.987 43.3643 44.454 42.3783 44.6962C41.2886 44.9557 40.1124 44.8865 39.0054 44.8692H39.2475C39.4032 44.8519 39.5416 44.8346 39.6973 44.8173C39.8183 44.8 39.9567 44.7654 40.0778 44.7481C41.2713 44.4367 42.3092 43.693 42.9319 42.6378C43.641 41.4443 43.5892 39.9222 43.5892 38.6249V28.8346C43.5892 28.8346 43.5892 28.2984 43.6065 28.2984C43.641 27.9005 43.9005 27.5373 44.281 27.3816L45.8378 26.7589C45.9589 26.707 46.0973 26.6897 46.2356 26.6897C46.841 26.6724 47.3254 27.1567 47.3254 27.7622Z" fill="url(#paint20_linear_10763_9429)"/>
<path d="M5.96766 48.5017C5.96766 49.5395 5.12009 50.3698 4.09955 50.3698C3.07901 50.3698 2.23145 49.5222 2.23145 48.5017C2.23145 47.4811 3.07901 46.6335 4.09955 46.6335C5.12009 46.6335 5.96766 47.4638 5.96766 48.5017Z" fill="url(#paint21_linear_10763_9429)"/>
<path d="M10.7069 48.5017C10.7069 49.5395 9.85935 50.3698 8.83881 50.3698C7.81827 50.3698 6.9707 49.5222 6.9707 48.5017C6.9707 47.4811 7.81827 46.6335 8.83881 46.6335C9.85935 46.6335 10.7069 47.4638 10.7069 48.5017Z" fill="url(#paint22_linear_10763_9429)"/>
<path d="M35.0097 23.0573C35.0097 24.0952 34.1621 24.9254 33.1415 24.9254C32.121 24.9254 31.2734 24.0779 31.2734 23.0573C31.2734 22.0368 32.121 21.1892 33.1415 21.1892C34.1621 21.1892 35.0097 22.0195 35.0097 23.0573Z" fill="url(#paint23_linear_10763_9429)"/>
<path d="M39.7494 23.0573C39.7494 24.0952 38.9018 24.9254 37.8813 24.9254C36.8608 24.9254 36.0132 24.0779 36.0132 23.0573C36.0132 22.0368 36.8608 21.1892 37.8813 21.1892C38.9018 21.1892 39.7494 22.0195 39.7494 23.0573Z" fill="url(#paint24_linear_10763_9429)"/>
<path d="M2.69838 53.5178H0.83027C0.363243 53.5178 0 53.8984 0 54.3481V60.4713C0 61.0076 0.294054 61.3016 0.83027 61.3016C1.24541 61.3016 1.59135 60.9557 1.59135 60.5405V54.9362H2.68108C4.08216 54.9362 5.05081 55.7665 5.05081 57.3924C5.05081 59.0184 4.16865 59.7621 2.88865 59.8313C2.88865 59.8313 2.05838 59.8659 2.05838 60.5578C2.05838 61.1286 2.64649 61.2843 2.83676 61.267H2.85405C5.24108 61.1978 6.65946 59.52 6.65946 57.3751C6.65946 55.2303 5.17189 53.5178 2.69838 53.5178Z" fill="#121D56"/>
<path d="M7.59375 54.1233C7.59375 53.6389 7.99159 53.2411 8.47591 53.2411C8.96024 53.2411 9.35807 53.6389 9.35807 54.1233C9.35807 54.6076 8.96024 55.0054 8.47591 55.0054C7.99159 55.0054 7.59375 54.6076 7.59375 54.1233ZM7.69753 56.2681C7.69753 55.7665 8.09537 55.4897 8.47591 55.4897C8.85645 55.4897 9.25429 55.7665 9.25429 56.2681V60.6097C9.25429 61.1114 8.87375 61.3881 8.47591 61.3881C8.07807 61.3881 7.69753 61.1287 7.69753 60.6097V56.2681Z" fill="#121D56"/>
<path d="M16.4668 56.2681V60.7135C16.4668 62.7027 15.256 64 13.2149 64C12.4539 64 11.6063 63.7925 11.122 63.5157C10.8279 63.3427 10.6895 63.0833 10.6895 62.8411C10.6895 62.5298 10.9144 62.253 11.3122 62.253C11.3987 62.253 11.4852 62.2703 11.589 62.3049C11.9349 62.4087 12.3674 62.6508 13.0939 62.6508C14.3566 62.6508 14.9101 61.9071 14.9101 60.7135V60.3157C14.6333 60.9903 13.8722 61.4054 12.9209 61.4054C11.1912 61.4054 10.1533 60.0389 10.1533 58.413C10.1533 56.7871 11.243 55.4379 13.0074 55.4379C13.7166 55.4379 14.4776 55.7492 14.9101 56.3892V56.32C14.9101 55.7665 15.3079 55.4898 15.7058 55.4898C16.0863 55.4898 16.4668 55.7665 16.4668 56.2681ZM14.8928 58.4303C14.8928 57.5308 14.2355 56.8562 13.3187 56.8562C12.402 56.8562 11.7101 57.5135 11.7101 58.4303C11.7101 59.3471 12.3847 60.0217 13.3187 60.0217C14.2355 60.0217 14.8928 59.3471 14.8928 58.4303Z" fill="#121D56"/>
<path d="M17.5566 54.1233C17.5566 53.6389 17.9545 53.2411 18.4388 53.2411C18.9231 53.2411 19.321 53.6389 19.321 54.1233C19.321 54.6076 18.9231 55.0054 18.4388 55.0054C17.9545 55.0054 17.5566 54.6076 17.5566 54.1233ZM17.6604 56.2681C17.6604 55.7665 18.0583 55.4897 18.4388 55.4897C18.8193 55.4897 19.2172 55.7665 19.2172 56.2681V60.6097C19.2172 61.1114 18.8366 61.3881 18.4388 61.3881C18.041 61.3881 17.6604 61.1287 17.6604 60.6097V56.2681Z" fill="#121D56"/>
<path d="M23.4726 55.5762C23.7839 55.5762 24.078 55.853 24.078 56.199C24.078 56.5449 23.8012 56.8217 23.4726 56.8217H22.6769V60.6271C22.6769 61.146 22.2791 61.4054 21.8985 61.4054C21.518 61.4054 21.1202 61.146 21.1202 60.6271V56.8217H20.7223C20.3937 56.8217 20.0996 56.5449 20.0996 56.199C20.0996 55.853 20.3764 55.5762 20.7223 55.5762H21.1202V54.6076C21.1202 54.0887 21.518 53.8292 21.8985 53.8292C22.2791 53.8292 22.6769 54.0887 22.6769 54.6076V55.5762H23.4726Z" fill="#121D56"/>
<path d="M30.7029 56.3027V60.6097C30.7029 61.1114 30.3223 61.3881 29.9245 61.3881C29.5267 61.3881 29.1288 61.1114 29.1288 60.6097V60.333C28.8521 61.0076 28.091 61.4227 27.1396 61.4227C25.4099 61.4227 24.3721 60.0562 24.3721 58.4303C24.3721 56.8043 25.4618 55.4551 27.2261 55.4551C27.9353 55.4551 28.6964 55.7665 29.1288 56.4065V56.3027C29.1288 55.7838 29.5267 55.5243 29.9245 55.5243C30.3223 55.5243 30.7029 55.7665 30.7029 56.3027ZM29.1288 58.4303C29.1288 57.5308 28.4715 56.8562 27.5548 56.8562C26.638 56.8562 25.9461 57.5135 25.9461 58.4303C25.9461 59.347 26.6207 60.0216 27.5548 60.0216C28.4715 60.0216 29.1288 59.347 29.1288 58.4303Z" fill="#121D56"/>
<path d="M31.896 53.7773C31.896 53.2584 32.2938 52.9989 32.6744 52.9989C33.0549 52.9989 33.4528 53.2584 33.4528 53.7773V60.6097C33.4528 61.1286 33.0549 61.3881 32.6744 61.3881C32.2938 61.3881 31.896 61.1286 31.896 60.6097V53.7773Z" fill="#121D56"/>
<path d="M45.0248 54.4173V60.5925C45.0248 61.0249 44.6616 61.3881 44.2292 61.3881C43.7967 61.3881 43.4335 61.0249 43.4335 60.5925C43.4335 57.7211 43.4508 56.6141 43.5027 56.026L41.5827 58.6897C41.4097 58.9146 41.2194 59.0357 41.0292 59.0357C40.8389 59.0357 40.6486 58.9319 40.4756 58.6897L38.5729 56.026C38.6421 56.5968 38.6421 57.6865 38.6421 60.5925C38.6421 61.0249 38.2962 61.3881 37.8465 61.3881C37.3967 61.3881 37.0508 61.0249 37.0508 60.5925V54.4173C37.0508 53.8984 37.4832 53.4487 38.0194 53.4487C38.3135 53.4487 38.6075 53.587 38.7805 53.8292L41.0119 56.9427L43.2432 53.8292C43.4335 53.5698 43.7102 53.4487 44.0043 53.4487C44.5924 53.4487 45.0248 53.8811 45.0248 54.4173Z" fill="#121D56"/>
<path d="M52.3933 56.3027V60.6097C52.3933 61.1114 52.0128 61.3881 51.6149 61.3881C51.2171 61.3881 50.8193 61.1114 50.8193 60.6097V60.333C50.5425 61.0076 49.7814 61.4227 48.8301 61.4227C47.1003 61.4227 46.0625 60.0562 46.0625 58.4303C46.0625 56.8043 47.1522 55.4551 48.9166 55.4551C49.6257 55.4551 50.3868 55.7665 50.8193 56.4065V56.3027C50.8193 55.7838 51.2171 55.5243 51.6149 55.5243C51.9955 55.5243 52.3933 55.7665 52.3933 56.3027ZM50.8193 58.4303C50.8193 57.5308 50.162 56.8562 49.2452 56.8562C48.3285 56.8562 47.6366 57.5135 47.6366 58.4303C47.6366 59.347 48.3112 60.0216 49.2452 60.0216C50.162 60.0216 50.8193 59.347 50.8193 58.4303Z" fill="#121D56"/>
<path d="M53.5869 53.7773C53.5869 53.2584 53.9848 52.9989 54.3653 52.9989C54.7458 52.9989 55.1437 53.2584 55.1437 53.7773V60.6097C55.1437 61.1286 54.7458 61.3881 54.3653 61.3881C53.9848 61.3881 53.5869 61.1286 53.5869 60.6097V53.7773Z" fill="#121D56"/>
<path d="M56.3374 53.7773C56.3374 53.2584 56.7352 52.9989 57.1158 52.9989C57.4963 52.9989 57.8942 53.2584 57.8942 53.7773V60.6097C57.8942 61.1286 57.4963 61.3881 57.1158 61.3881C56.7352 61.3881 56.3374 61.1286 56.3374 60.6097V53.7773Z" fill="#121D56"/>
<defs>
<linearGradient id="paint0_linear_10763_9429" x1="15.3842" y1="36.8363" x2="10.6724" y2="38.1198" gradientUnits="userSpaceOnUse">
<stop stop-color="#00B2FF"/>
<stop offset="0.7" stop-color="#3B5AFF"/>
<stop offset="1" stop-color="#0046A6"/>
</linearGradient>
<linearGradient id="paint1_linear_10763_9429" x1="14.4348" y1="20.3157" x2="27.0497" y2="20.3157" gradientUnits="userSpaceOnUse">
<stop stop-color="#00B2FF"/>
<stop offset="0.7" stop-color="#3B5AFF"/>
<stop offset="1" stop-color="#0046A6"/>
</linearGradient>
<linearGradient id="paint2_linear_10763_9429" x1="54.2962" y1="39.4102" x2="57.9269" y2="22.2201" gradientUnits="userSpaceOnUse">
<stop stop-color="#00B2FF"/>
<stop offset="0.7" stop-color="#3B5AFF"/>
<stop offset="1" stop-color="#0046A6"/>
</linearGradient>
<linearGradient id="paint3_linear_10763_9429" x1="54.298" y1="17.408" x2="57.9304" y2="0.207568" gradientUnits="userSpaceOnUse">
<stop stop-color="#00B2FF"/>
<stop offset="0.7" stop-color="#3B5AFF"/>
<stop offset="1" stop-color="#0046A6"/>
</linearGradient>
<linearGradient id="paint4_linear_10763_9429" x1="5.09385" y1="22.8065" x2="10.4733" y2="-0.326943" gradientUnits="userSpaceOnUse">
<stop stop-color="#00B2FF"/>
<stop offset="0.7" stop-color="#3B5AFF"/>
<stop offset="1" stop-color="#0046A6"/>
</linearGradient>
<linearGradient id="paint5_linear_10763_9429" x1="2.88325" y1="8.37883" x2="5.44671" y2="21.1062" gradientUnits="userSpaceOnUse">
<stop stop-color="#00B2FF"/>
<stop offset="0.7" stop-color="#3B5AFF"/>
<stop offset="1" stop-color="#0046A6"/>
</linearGradient>
<linearGradient id="paint6_linear_10763_9429" x1="3.17039" y1="43.0305" x2="8.20736" y2="31.9827" gradientUnits="userSpaceOnUse">
<stop stop-color="#00B2FF"/>
<stop offset="0.7" stop-color="#3B5AFF"/>
<stop offset="1" stop-color="#0046A6"/>
</linearGradient>
<linearGradient id="paint7_linear_10763_9429" x1="2.54595" y1="30.3377" x2="5.46228" y2="42.4475" gradientUnits="userSpaceOnUse">
<stop stop-color="#00B2FF"/>
<stop offset="0.7" stop-color="#3B5AFF"/>
<stop offset="1" stop-color="#0046A6"/>
</linearGradient>
<linearGradient id="paint8_linear_10763_9429" x1="30.6456" y1="17.6623" x2="18.0394" y2="12.0874" gradientUnits="userSpaceOnUse">
<stop stop-color="#00B2FF"/>
<stop offset="0.7" stop-color="#3B5AFF"/>
<stop offset="1" stop-color="#0046A6"/>
</linearGradient>
<linearGradient id="paint9_linear_10763_9429" x1="14.5991" y1="11.2847" x2="27.5029" y2="11.2847" gradientUnits="userSpaceOnUse">
<stop stop-color="#00B2FF"/>
<stop offset="0.7" stop-color="#3B5AFF"/>
<stop offset="1" stop-color="#0046A6"/>
</linearGradient>
<linearGradient id="paint10_linear_10763_9429" x1="40.1852" y1="17.3544" x2="48.891" y2="13.4659" gradientUnits="userSpaceOnUse">
<stop stop-color="#00B2FF"/>
<stop offset="0.7" stop-color="#3B5AFF"/>
<stop offset="1" stop-color="#0046A6"/>
</linearGradient>
<linearGradient id="paint11_linear_10763_9429" x1="47.1833" y1="18.1102" x2="52.8395" y2="0.43414" gradientUnits="userSpaceOnUse">
<stop stop-color="#00B2FF"/>
<stop offset="0.7" stop-color="#3B5AFF"/>
<stop offset="1" stop-color="#0046A6"/>
</linearGradient>
<linearGradient id="paint12_linear_10763_9429" x1="29.2222" y1="10.2711" x2="38.7115" y2="11.7777" gradientUnits="userSpaceOnUse">
<stop stop-color="#00B2FF"/>
<stop offset="0.7" stop-color="#3B5AFF"/>
<stop offset="1" stop-color="#0046A6"/>
</linearGradient>
<linearGradient id="paint13_linear_10763_9429" x1="41.7747" y1="12.8173" x2="31.9204" y2="10.342" gradientUnits="userSpaceOnUse">
<stop stop-color="#00B2FF"/>
<stop offset="0.7" stop-color="#3B5AFF"/>
<stop offset="1" stop-color="#0046A6"/>
</linearGradient>
<linearGradient id="paint14_linear_10763_9429" x1="25.9163" y1="39.507" x2="38.5226" y2="33.9339" gradientUnits="userSpaceOnUse">
<stop stop-color="#00B2FF"/>
<stop offset="0.7" stop-color="#3B5AFF"/>
<stop offset="1" stop-color="#0046A6"/>
</linearGradient>
<linearGradient id="paint15_linear_10763_9429" x1="41.9634" y1="33.1226" x2="29.0596" y2="33.1226" gradientUnits="userSpaceOnUse">
<stop stop-color="#00B2FF"/>
<stop offset="0.7" stop-color="#3B5AFF"/>
<stop offset="1" stop-color="#0046A6"/>
</linearGradient>
<linearGradient id="paint16_linear_10763_9429" x1="27.3435" y1="32.1159" x2="17.8542" y2="33.6242" gradientUnits="userSpaceOnUse">
<stop stop-color="#00B2FF"/>
<stop offset="0.7" stop-color="#3B5AFF"/>
<stop offset="1" stop-color="#0046A6"/>
</linearGradient>
<linearGradient id="paint17_linear_10763_9429" x1="14.7877" y1="34.6638" x2="24.6419" y2="32.1885" gradientUnits="userSpaceOnUse">
<stop stop-color="#00B2FF"/>
<stop offset="0.7" stop-color="#3B5AFF"/>
<stop offset="1" stop-color="#0046A6"/>
</linearGradient>
<linearGradient id="paint18_linear_10763_9429" x1="14.7235" y1="44.7896" x2="43.4785" y2="40.8424" gradientUnits="userSpaceOnUse">
<stop stop-color="#00B2FF"/>
<stop offset="0.7" stop-color="#3B5AFF"/>
<stop offset="1" stop-color="#0046A6"/>
</linearGradient>
<linearGradient id="paint19_linear_10763_9429" x1="48.882" y1="39.5105" x2="52.1823" y2="22.1267" gradientUnits="userSpaceOnUse">
<stop stop-color="#00B2FF"/>
<stop offset="0.7" stop-color="#3B5AFF"/>
<stop offset="1" stop-color="#0046A6"/>
</linearGradient>
<linearGradient id="paint20_linear_10763_9429" x1="42.4579" y1="44.8588" x2="46.995" y2="26.7105" gradientUnits="userSpaceOnUse">
<stop stop-color="#00B2FF"/>
<stop offset="0.7" stop-color="#3B5AFF"/>
<stop offset="1" stop-color="#0046A6"/>
</linearGradient>
<linearGradient id="paint21_linear_10763_9429" x1="5.90366" y1="48.0104" x2="2.2989" y2="48.9912" gradientUnits="userSpaceOnUse">
<stop stop-color="#06B0FD"/>
<stop offset="0.7" stop-color="#3B5AFD"/>
<stop offset="1" stop-color="#0046A4"/>
</linearGradient>
<linearGradient id="paint22_linear_10763_9429" x1="10.6429" y1="48.0104" x2="7.03816" y2="48.9912" gradientUnits="userSpaceOnUse">
<stop stop-color="#06B0FD"/>
<stop offset="0.7" stop-color="#3B5AFD"/>
<stop offset="1" stop-color="#0046A4"/>
</linearGradient>
<linearGradient id="paint23_linear_10763_9429" x1="34.9508" y1="22.5643" x2="31.3461" y2="23.5468" gradientUnits="userSpaceOnUse">
<stop stop-color="#06B0FD"/>
<stop offset="0.7" stop-color="#3B5AFD"/>
<stop offset="1" stop-color="#0046A4"/>
</linearGradient>
<linearGradient id="paint24_linear_10763_9429" x1="39.6906" y1="22.5643" x2="36.0858" y2="23.5468" gradientUnits="userSpaceOnUse">
<stop stop-color="#06B0FD"/>
<stop offset="0.7" stop-color="#3B5AFD"/>
<stop offset="1" stop-color="#0046A4"/>
</linearGradient>
</defs>
</svg>
